<svg width="318" height="319" viewBox="0 0 318 319" fill="none" xmlns="http://www.w3.org/2000/svg">
<g clip-path="url(#clip0)">
<path d="M13.2723 306.586C11.7144 306.586 10.0998 306.373 8.4286 305.948C6.78569 305.522 5.21362 304.941 3.71238 304.204C2.23942 303.438 0.993113 302.573 -0.0266113 301.609C0.624857 300.673 1.34716 299.738 2.1403 298.802C2.93344 297.838 3.8115 296.888 4.77459 295.952C5.87929 297.143 7.09732 298.249 8.4286 299.27C9.75989 300.262 11.0912 301.07 12.4225 301.694C13.7822 302.318 15.0285 302.63 16.1615 302.63C17.1812 302.63 18.0876 302.361 18.8808 301.822C19.702 301.255 20.1129 300.447 20.1129 299.397C20.1129 298.405 19.7305 297.526 18.9658 296.76C18.201 295.966 17.1954 295.243 15.9491 294.591C14.731 293.911 13.4281 293.244 12.0401 292.592C10.8221 292.025 9.61828 291.43 8.4286 290.806C7.23892 290.182 6.14836 289.501 5.15699 288.764C4.19389 288.027 3.41496 287.204 2.82012 286.297C2.25363 285.361 1.97035 284.312 1.97035 283.15C1.97035 281.987 2.26777 280.853 2.86261 279.747C3.48579 278.641 4.34971 277.649 5.45441 276.77C6.55911 275.863 7.86211 275.153 9.36335 274.643C10.8929 274.104 12.5641 273.835 14.377 273.835C16.4448 273.835 18.5267 274.189 20.6228 274.898C22.7472 275.607 24.5882 276.628 26.1463 277.961C25.6365 278.925 24.9427 279.875 24.0644 280.81C23.2146 281.746 22.3788 282.54 21.5576 283.192C19.8295 281.547 18.116 280.172 16.4164 279.067C14.7169 277.932 13.1165 277.365 11.6152 277.365C10.5105 277.365 9.67491 277.649 9.10842 278.216C8.57021 278.755 8.30114 279.336 8.30114 279.96C8.30114 280.64 8.6127 281.264 9.23589 281.831C9.85907 282.398 10.6805 282.951 11.7002 283.49C12.7199 284.029 13.8388 284.582 15.0568 285.149C16.3315 285.744 17.6203 286.382 18.9233 287.063C20.2544 287.743 21.4726 288.523 22.5773 289.402C23.7105 290.253 24.6167 291.231 25.2965 292.337C25.9764 293.443 26.3163 294.705 26.3163 296.122C26.3163 297.54 25.9624 298.887 25.2541 300.163C24.5742 301.41 23.6255 302.516 22.4073 303.481C21.2176 304.445 19.8295 305.211 18.2435 305.777C16.6855 306.316 15.0285 306.586 13.2723 306.586ZM36.1902 311.349C35.1419 311.349 33.9523 311.321 32.6212 311.264C31.318 311.236 30.2133 311.208 29.3071 311.179C29.2785 310.385 29.2506 309.194 29.2221 307.606C29.2221 306.019 29.2081 304.19 29.1796 302.12C29.1511 300.021 29.1232 297.838 29.0946 295.569C29.0946 293.273 29.0946 291.032 29.0946 288.849C29.0946 286.637 29.0946 284.638 29.0946 282.852C29.718 282.823 30.4682 282.796 31.3465 282.767C32.2248 282.738 33.1171 282.724 34.0233 282.724C34.958 282.696 35.7514 282.682 36.4026 282.682C36.4026 283.136 36.4026 283.604 36.4026 284.085C38.1022 282.923 39.8867 282.342 41.7562 282.342C43.5693 282.342 45.1838 282.852 46.5999 283.873C48.0159 284.894 49.1353 286.297 49.9565 288.084C50.7777 289.841 51.1886 291.855 51.1886 294.123C51.1886 296.42 50.7498 298.518 49.8715 300.418C49.0217 302.29 47.8606 303.792 46.3874 304.927C44.9428 306.033 43.3143 306.586 41.5013 306.586C39.8582 306.586 38.1161 306.104 36.2752 305.139C36.2752 306.529 36.2612 307.763 36.2327 308.84C36.2327 309.917 36.2187 310.754 36.1902 311.349ZM39.8017 285.829C38.5835 285.829 37.4509 286.524 36.4026 287.913C36.4026 289.87 36.3887 291.912 36.3602 294.038C36.3602 296.136 36.3462 298.178 36.3177 300.163C36.799 301.099 37.4084 301.836 38.1447 302.375C38.8809 302.914 39.6743 303.183 40.524 303.183C41.8551 303.183 42.8894 302.502 43.6257 301.141C44.3905 299.78 44.7729 297.895 44.7729 295.484C44.7729 293.641 44.5465 291.997 44.0931 290.551C43.6682 289.076 43.0873 287.927 42.351 287.105C41.6148 286.255 40.765 285.829 39.8017 285.829ZM54.6136 279.79V274.048H61.8367V279.79H54.6136ZM54.7836 306.458C54.755 305.522 54.7271 304.26 54.6986 302.673C54.67 301.056 54.6422 299.213 54.6136 297.143C54.6136 295.045 54.5997 292.805 54.5711 290.423C54.5711 288.041 54.5711 285.603 54.5711 283.107C55.8458 283.107 57.1769 283.121 58.5651 283.15C59.9811 283.178 61.0858 283.221 61.8791 283.277C61.8791 285.347 61.8652 287.517 61.8367 289.785C61.8367 292.053 61.8227 294.265 61.7942 296.42C61.7942 298.547 61.7802 300.475 61.7517 302.205C61.7231 303.935 61.6953 305.296 61.6667 306.288C60.3635 306.344 59.1174 306.387 57.9277 306.415C56.738 306.444 55.6898 306.458 54.7836 306.458ZM77.6623 306.586C75.9906 306.586 74.4046 306.274 72.9036 305.65C71.4304 304.998 70.1133 304.119 68.9522 303.013C67.8189 301.907 66.9267 300.631 66.2754 299.185C65.6235 297.71 65.2982 296.165 65.2982 294.549C65.2982 292.876 65.6235 291.316 66.2754 289.87C66.9552 288.395 67.89 287.091 69.0796 285.957C70.2693 284.822 71.6289 283.944 73.1585 283.32C74.716 282.668 76.3731 282.342 78.1297 282.342C81.8116 282.342 85.3242 283.873 88.6668 286.935L84.6304 291.359C83.7236 289.686 82.5624 288.339 81.1464 287.318C79.7582 286.269 78.3846 285.744 77.025 285.744C75.5518 285.744 74.3621 286.368 73.4559 287.616C72.5776 288.863 72.1388 290.537 72.1388 292.635C72.1388 294.535 72.4641 296.279 73.116 297.866C73.7959 299.454 74.7021 300.73 75.8353 301.694C76.9679 302.63 78.2001 303.098 79.5318 303.098C80.6929 303.098 81.8401 302.729 82.9734 301.992C84.1345 301.255 85.0978 300.262 85.8619 299.015L88.4544 301.567C85.1118 304.913 81.5142 306.586 77.6623 306.586ZM92.4842 311.987L92.0593 307.989C93.5603 307.904 94.906 307.705 96.0957 307.394C97.3132 307.11 98.4179 306.657 99.4098 306.033C98.2201 303.651 97.0158 301.113 95.7983 298.419C94.58 295.726 93.4189 293.074 92.3142 290.465C91.2374 287.828 90.3026 285.418 89.51 283.235C90.5297 283.065 91.8043 282.895 93.3339 282.724C94.8635 282.554 96.3645 282.413 97.8377 282.299C98.5454 284.482 99.4802 287.105 100.642 290.168C101.803 293.23 103.064 296.449 104.423 299.823C105.358 297.923 106.25 295.555 107.1 292.72C107.95 289.884 108.87 286.467 109.862 282.469L115.003 283.065C113.615 288.169 112.156 292.536 110.627 296.165C109.125 299.766 107.483 302.715 105.698 305.012C103.941 307.309 101.973 309.01 99.7922 310.116C97.6107 311.222 95.1749 311.846 92.4842 311.987ZM144.724 299.738C143.988 299.738 143.223 299.738 142.429 299.738C141.665 299.709 140.871 299.667 140.05 299.61C139.427 301.822 138.804 304.133 138.181 306.543L133.082 306.203C134.668 300.844 136.439 295.442 138.393 289.998C140.347 284.525 142.429 279.208 144.639 274.048C145.687 273.934 146.848 273.835 148.123 273.75C149.426 273.665 150.757 273.622 152.117 273.622C153.845 277.819 155.686 282.668 157.64 288.169C159.595 293.669 161.606 299.596 163.674 305.948C162.031 306.231 160.473 306.444 159 306.586C157.555 306.727 156.082 306.798 154.581 306.798C153.986 304.416 153.32 301.907 152.584 299.27C150.063 299.582 147.443 299.738 144.724 299.738ZM146.381 278.599C145.786 280.215 145.035 282.455 144.129 285.319C143.251 288.183 142.273 291.543 141.197 295.399C142.33 295.541 143.492 295.641 144.681 295.697C145.9 295.754 147.202 295.782 148.59 295.782C149.1 295.782 149.61 295.782 150.12 295.782C150.658 295.754 151.154 295.74 151.607 295.74C150.984 293.471 150.346 291.274 149.695 289.147C149.072 286.992 148.477 285.021 147.91 283.235C147.344 281.42 146.834 279.875 146.381 278.599ZM170.723 306.756C169.109 303.013 167.48 299.1 165.837 295.017C164.223 290.933 162.722 287.006 161.333 283.235C163.033 282.98 164.591 282.781 166.007 282.639C167.423 282.469 168.642 282.356 169.661 282.299C170.482 285.361 171.432 288.537 172.508 291.827C173.584 295.088 174.746 298.32 175.992 301.524C177.267 298.405 178.442 295.215 179.519 291.954C180.595 288.693 181.529 285.532 182.323 282.469L186.827 283.065C185.353 287.176 183.824 291.217 182.238 295.187C180.652 299.128 179.051 302.871 177.437 306.415C176.36 306.529 175.227 306.614 174.038 306.671C172.876 306.727 171.772 306.756 170.723 306.756ZM199.227 306.586C196.989 306.586 194.964 306.061 193.151 305.012C191.338 303.962 189.893 302.545 188.817 300.759C187.769 298.972 187.245 296.987 187.245 294.804C187.245 293.074 187.571 291.458 188.222 289.955C188.873 288.452 189.78 287.134 190.941 285.999C192.131 284.837 193.491 283.944 195.02 283.32C196.55 282.668 198.178 282.342 199.906 282.342C202.144 282.342 204.169 282.866 205.982 283.915C207.795 284.965 209.225 286.382 210.274 288.169C211.35 289.926 211.888 291.912 211.888 294.123C211.888 295.853 211.562 297.469 210.911 298.972C210.26 300.475 209.339 301.808 208.149 302.97C206.988 304.105 205.642 304.998 204.113 305.65C202.612 306.274 200.983 306.586 199.227 306.586ZM200.459 303.14C201.96 303.14 203.136 302.502 203.985 301.226C204.835 299.922 205.26 298.121 205.26 295.825C205.26 293.897 204.976 292.181 204.41 290.678C203.844 289.175 203.065 287.985 202.073 287.105C201.082 286.226 199.949 285.787 198.674 285.787C197.173 285.787 195.997 286.439 195.148 287.743C194.298 289.019 193.873 290.806 193.873 293.103C193.873 295.003 194.157 296.718 194.723 298.249C195.289 299.752 196.069 300.943 197.06 301.822C198.079 302.701 199.213 303.14 200.459 303.14ZM226.787 306.586C225.115 306.586 223.529 306.274 222.028 305.65C220.555 304.998 219.238 304.119 218.077 303.013C216.944 301.907 216.051 300.631 215.4 299.185C214.748 297.71 214.423 296.165 214.423 294.549C214.423 292.876 214.748 291.316 215.4 289.87C216.08 288.395 217.015 287.091 218.204 285.957C219.394 284.822 220.754 283.944 222.283 283.32C223.841 282.668 225.498 282.342 227.254 282.342C230.936 282.342 234.449 283.873 237.792 286.935L233.755 291.359C232.848 289.686 231.687 288.339 230.271 287.318C228.883 286.269 227.509 285.744 226.15 285.744C224.677 285.744 223.487 286.368 222.581 287.616C221.702 288.863 221.264 290.537 221.264 292.635C221.264 294.535 221.589 296.279 222.241 297.866C222.921 299.454 223.827 300.73 224.96 301.694C226.093 302.63 227.325 303.098 228.657 303.098C229.818 303.098 230.965 302.729 232.098 301.992C233.259 301.255 234.223 300.262 234.987 299.015L237.579 301.567C234.236 304.913 230.639 306.586 226.787 306.586ZM247.642 306.586C245.234 306.586 243.266 306.004 241.736 304.842C240.235 303.651 239.484 302.106 239.484 300.206C239.484 298.476 240.107 296.874 241.354 295.399C242.629 293.925 244.385 292.677 246.623 291.656C248.86 290.607 251.424 289.884 254.313 289.487C253.293 286.992 251.891 285.744 250.107 285.744C249.03 285.744 247.642 286.156 245.943 286.978C244.243 287.8 242.515 288.878 240.759 290.21L239.484 285.957C243.705 283.546 247.699 282.342 251.466 282.342C254.412 282.342 256.777 283.15 258.562 284.766C260.346 286.354 261.649 288.906 262.471 292.422C263.292 295.91 263.703 300.532 263.703 306.288C263.165 306.316 262.201 306.344 260.814 306.373C259.454 306.429 257.981 306.458 256.395 306.458C256.395 305.551 256.38 304.658 256.352 303.778C253.435 305.65 250.531 306.586 247.642 306.586ZM246.495 299.908C246.495 300.787 246.835 301.482 247.515 301.992C248.223 302.502 249.157 302.758 250.319 302.758C252.358 302.758 254.327 301.878 256.225 300.121C256.055 297.115 255.729 294.577 255.248 292.507C254.143 292.734 253.066 293.103 252.019 293.613C250.999 294.123 250.064 294.733 249.214 295.442C248.392 296.122 247.727 296.859 247.217 297.654C246.735 298.419 246.495 299.171 246.495 299.908ZM275.679 306.586C273.895 306.586 272.28 306.075 270.836 305.054C269.42 304.034 268.3 302.63 267.479 300.844C266.658 299.057 266.247 297.044 266.247 294.804C266.247 292.478 266.672 290.38 267.522 288.509C268.4 286.637 269.575 285.149 271.048 284.043C272.521 282.908 274.15 282.342 275.934 282.342C277.549 282.342 279.248 282.809 281.033 283.745C281.033 279.974 281.033 276.784 281.033 274.175C281.684 274.175 282.449 274.189 283.327 274.218C284.234 274.218 285.14 274.232 286.047 274.26C286.953 274.289 287.718 274.317 288.341 274.345C288.341 275.791 288.341 277.521 288.341 279.534C288.341 281.519 288.327 283.646 288.298 285.914C288.298 288.183 288.285 290.437 288.256 292.677C288.256 294.889 288.242 296.959 288.213 298.887C288.213 300.815 288.2 302.446 288.171 303.778C288.171 305.111 288.157 306.004 288.129 306.458C286.91 306.458 285.664 306.429 284.39 306.373C283.115 306.344 282.067 306.316 281.245 306.288C281.245 305.919 281.231 305.395 281.203 304.714C279.447 305.962 277.605 306.586 275.679 306.586ZM272.663 293.443C272.663 295.286 272.875 296.944 273.3 298.419C273.753 299.865 274.348 301.014 275.085 301.864C275.849 302.686 276.699 303.098 277.634 303.098C278.908 303.098 280.084 302.346 281.16 300.844C281.132 299.171 281.104 297.285 281.075 295.187C281.075 293.06 281.075 290.905 281.075 288.722C280.594 287.786 279.985 287.063 279.248 286.552C278.54 286.013 277.761 285.744 276.912 285.744C275.58 285.744 274.532 286.425 273.767 287.786C273.031 289.118 272.663 291.004 272.663 293.443ZM303.705 306.586C301.467 306.586 299.442 306.061 297.629 305.012C295.816 303.962 294.372 302.545 293.296 300.759C292.247 298.972 291.723 296.987 291.723 294.804C291.723 293.074 292.049 291.458 292.701 289.955C293.352 288.452 294.259 287.134 295.42 285.999C296.61 284.837 297.969 283.944 299.499 283.32C301.028 282.668 302.657 282.342 304.385 282.342C306.623 282.342 308.648 282.866 310.461 283.915C312.274 284.965 313.704 286.382 314.752 288.169C315.828 289.926 316.367 291.912 316.367 294.123C316.367 295.853 316.041 297.469 315.39 298.972C314.738 300.475 313.817 301.808 312.628 302.97C311.467 304.105 310.121 304.998 308.591 305.65C307.09 306.274 305.461 306.586 303.705 306.586ZM304.937 303.14C306.438 303.14 307.614 302.502 308.464 301.226C309.314 299.922 309.739 298.121 309.739 295.825C309.739 293.897 309.455 292.181 308.889 290.678C308.322 289.175 307.543 287.985 306.552 287.105C305.561 286.226 304.427 285.787 303.153 285.787C301.652 285.787 300.476 286.439 299.626 287.743C298.777 289.019 298.352 290.806 298.352 293.103C298.352 295.003 298.635 296.718 299.201 298.249C299.768 299.752 300.547 300.943 301.538 301.822C302.558 302.701 303.691 303.14 304.937 303.14Z" fill="#33303E"/>
<path fill-rule="evenodd" clip-rule="evenodd" d="M206.136 118.354C210.275 122.651 214.288 127.575 217.87 133.192C229.96 152.471 232.451 174.736 228.611 193.307C224.999 210.596 216.521 222.649 209.826 229.696C203.063 236.816 198.074 239.435 198.074 239.435C198.074 239.435 201.203 234.528 204.257 225.859C207.35 217.08 209.904 204.982 208.569 191.641C207.191 177.502 201.551 163.331 192.812 152.217C190.224 148.836 187.152 145.544 183.861 142.139C182.698 140.936 181.505 139.715 180.279 138.46C175.563 133.689 170.267 128.532 165.067 122.759C159.613 116.764 154.525 110.101 150.321 102.677C145.787 94.763 142.85 86.1294 141.793 77.5051C140.513 66.3389 142.832 56.5839 146.163 49.3679C149.684 41.7554 154.34 36.8358 157.545 34.0493C160.836 31.1867 162.936 30.105 162.936 30.105C162.936 30.105 161.598 32.1502 159.958 36.0115C158.327 39.8533 156.492 45.5444 156.188 52.3309C155.896 58.7353 156.998 65.9351 160.105 72.5007C162.442 77.6041 166.028 82.2409 170.419 86.9302C174.626 91.3842 179.499 95.4196 184.916 99.8463C190.21 104.134 195.969 108.655 201.695 114.007C203.193 115.392 204.676 116.838 206.136 118.354Z" fill="#FF2A2A"/>
<path fill-rule="evenodd" clip-rule="evenodd" d="M118.258 151.669C120.647 149.199 122.864 146.9 124.703 144.611C130.916 137.173 135.573 127.429 137.248 117.248C138.87 107.603 137.631 98.4607 135.735 91.5849C133.872 84.8261 131.725 80.834 131.725 80.834C131.725 80.834 135.73 82.5379 141.304 87.7476C146.811 92.8935 153.957 101.986 157.291 115.581C160.834 130.191 159.325 148.037 149.761 163.635C146.926 168.161 143.771 172.091 140.533 175.455C139.391 176.641 138.232 177.764 137.064 178.829C132.604 182.953 128.183 186.303 124.161 189.371C120.056 192.538 116.4 195.271 113.207 198.288C109.895 201.452 107.106 204.478 105.177 207.92C102.597 212.336 101.356 217.483 101.205 222.236C101.039 227.282 102.1 231.68 103.139 234.722C104.18 237.769 105.103 239.435 105.103 239.435C105.103 239.435 103.419 238.734 100.725 236.685C98.108 234.694 94.2349 231.074 91.1797 225.199C88.2905 219.632 86.1136 211.935 86.8638 202.916C87.5118 195.954 89.6555 188.93 93.1097 182.542C96.2956 176.557 100.174 171.191 104.313 166.458C108.24 161.904 112.197 157.92 115.648 154.375C116.541 153.443 117.415 152.54 118.258 151.669Z" fill="#FF2A2A"/>
<path fill-rule="evenodd" clip-rule="evenodd" d="M195.406 128.78C198.194 131.676 200.92 135.108 203.38 139.089C211.681 152.846 212.699 168.481 209.304 181.11C206.108 192.857 199.63 200.466 194.718 204.663C189.738 208.917 186.226 210.164 186.226 210.164C186.226 210.164 187.881 206.629 189.148 200.826C190.441 194.902 191.031 187.238 189.261 179.443C187.437 171.239 183.274 163.715 178.322 158.113C176.859 156.372 175.067 154.566 173.131 152.565C172.446 151.857 171.737 151.118 171.008 150.345C168.189 147.415 164.903 144.017 161.611 140.072C158.131 135.971 154.857 131.255 152.181 125.989C149.267 120.365 147.519 114.146 147.077 108.015C146.591 100.069 148.697 93.4032 151.365 88.6601C154.189 83.6531 157.669 80.6858 159.993 79.0928C162.387 77.4506 163.863 76.9388 163.863 76.9388C163.863 76.9388 163.147 78.4149 162.406 81.0546C161.665 83.695 160.988 87.4499 161.391 91.6228C161.764 95.5492 163.074 99.6709 165.39 103.011C167.116 105.622 169.503 107.841 172.278 110.242C174.969 112.545 178.006 114.619 181.459 117.159C184.844 119.617 188.597 122.381 192.423 125.891C193.426 126.797 194.423 127.758 195.406 128.78Z" fill="#FF2A2A"/>
<path d="M105.701 119.624C99.9377 120.66 93.9932 121.205 88.5819 123.62C76.2941 127.441 64.5839 134.613 56.5887 144.793C47.2984 154.861 47.0395 169.243 43.8103 181.841C43.0362 184.524 42.8377 187.476 41.1608 189.814V192.083C46.76 201.064 49.8941 211.54 56.8603 219.645C73.1918 238.359 96.7802 249.994 120.9 254.876C125.436 256.291 130.26 256.517 134.941 257.192H145.017C149.521 256.727 154.041 256.065 158.428 254.924C192.506 247.295 225.614 233.763 254.502 214.029C263.256 208.486 269.598 200.325 276.839 193.137V191.116C274.885 184.548 273.625 177.527 269.114 172.071C264.783 163.845 255.266 161.799 247.604 157.955C238.317 152.953 226.942 157.158 216.898 154.591C198.359 151.669 181.196 143.838 164.176 136.307C153.06 132.082 142.634 125.863 130.839 123.556C125.633 121.945 120.31 120.72 114.977 119.624H105.701L105.701 119.624ZM121.421 131.095C123.462 131.136 125.48 131.809 127.333 132.709C129.429 134.494 133.024 134.75 134.869 135.096C135.354 135.419 135.766 135.837 136.138 136.284C140.097 137.196 143.753 139.759 148.021 139.87C148.916 141.188 150.111 142.231 151.911 141.804C158.582 145.863 166.345 148.777 173.79 151.944C191.86 161.128 212.358 163.716 232.37 164.042C240.515 164.814 249.18 163.402 256.894 166.784C258.028 167.244 259.2 168.205 259.466 169.424C260.425 170.026 261.287 170.777 262.09 171.576C264.377 172.429 265.648 175.211 266.416 177.466C267.07 179.302 269.75 181.26 268.11 183.192C264.382 187.579 262.4 194.419 256.102 195.783C249.465 197.828 242.823 200.115 235.888 200.917C221.383 204.55 204.331 206.985 188.343 207.117C180.599 208.177 171.765 207.951 165.413 213.184C155.151 222.834 143.981 235.303 128.44 233.958C116.685 231.835 104.926 227.147 96.0513 218.991C83.1388 212.429 72.2059 202.147 62.3665 191.612C54.4803 183.365 54.5911 170.573 58.591 161.066C63.537 147.983 76.3884 140.377 88.7711 135.403C97.2582 130.892 108.741 131.669 118.637 131.471C119.56 131.189 120.495 131.077 121.422 131.095H121.421ZM49.2708 186.938C53.106 190.498 55.3646 196.453 59.381 200.309C62.7815 204.17 67.2832 207.141 70.0583 211.5C61.058 205.976 50.7386 198.223 49.2708 186.938ZM191.715 213.887C194.75 214.508 185.687 217.226 191.715 213.887V213.887ZM184.251 214.573C185.547 214.597 186.867 214.801 187.559 215.442C183.357 216.55 178.447 216.222 175.153 219.521C173.273 221.676 170.272 223.151 167.425 222.36C171.953 219.314 176.502 215.469 182.081 214.662C182.703 214.605 183.473 214.557 184.251 214.573ZM65.1515 218.7C67.8316 219.36 66.3837 222.481 65.1515 218.7V218.7ZM73.2768 225.199C74.8847 225.169 76.0511 226.475 77.1339 227.486C75.3103 228.431 73.3146 227.04 73.2768 225.199Z" fill="#669833"/>
<path d="M118.636 131.471C108.74 131.67 97.2575 130.892 88.7705 135.404C89.2093 136.88 86.7908 137.028 86.0718 137.92C76.553 143.601 67.1391 150.258 61.382 159.984C60.7825 160.889 59.0119 163.182 58.591 161.066C54.5911 170.573 54.4802 183.365 62.3652 191.613C72.2059 202.148 83.1387 212.429 96.0493 218.992C99.2332 218.739 102.075 220.357 104.986 221.352C115.459 225.149 127.612 226.798 138.086 222.176C146.813 217.278 155.575 211.651 165.921 211.197C167.61 210.688 165.899 212.623 165.414 213.185C171.766 207.951 180.6 208.177 188.344 207.117C204.333 206.986 221.384 204.55 235.889 200.917C235.051 200.969 233.069 201.625 234.141 200.388C241.677 195.375 250.286 192.267 258.019 187.606C262.07 185.319 263.322 180.694 264.776 176.622C265.35 175.484 265.969 176.983 266.417 177.467C265.649 175.212 264.378 172.43 262.091 171.577C260.99 172.923 259.268 170.592 259.467 169.424C259.201 168.205 258.029 167.244 256.896 166.784C249.181 163.402 240.516 164.815 232.372 164.042C212.359 163.717 191.862 161.128 173.791 151.944C166.347 148.778 158.584 145.864 151.912 141.804C150.113 142.231 148.917 141.189 148.023 139.87C143.754 139.759 140.099 137.196 136.139 136.285C135.153 137.984 131.94 134.992 133.677 134.902C131.736 134.601 129.044 134.165 127.334 132.709C127.584 133.066 127.819 133.439 127.999 133.839C124.519 132.971 120.865 132.871 117.441 131.831C117.835 131.704 118.236 131.585 118.637 131.471H118.636ZM133.676 134.902C134.115 134.97 134.53 135.033 134.869 135.097C134.333 134.942 133.945 134.888 133.676 134.902ZM127.745 143.4C131.583 143.341 135.414 143.991 139.068 145.588C151.31 150.448 158.607 163.026 160.939 175.473C159.8 181.352 162.86 187.342 159.603 192.866C154.825 200.457 144.977 202.109 137.207 204.173C140.21 203.71 143.731 205.179 146.289 206.716C136.719 213.104 124.534 216.895 113.146 213.543C97.217 208.688 81.9909 199.992 71.4624 186.898C66.7282 181.365 63.8025 171.501 69.7117 166.418C67.732 181.71 80.6956 200.04 97.0477 198.32C94.3245 194.518 89.7749 191.532 88.7864 186.842C88.7326 187.737 88.1915 188.348 86.9361 187.651C81.3715 184.705 78.3335 178.446 77.9963 172.335C77.6736 158.297 91.7845 146.84 105.322 148.274C106.316 148.408 108.411 148.852 106.771 149.883C113.052 146.221 120.418 143.515 127.745 143.4V143.4ZM88.7864 186.841C88.8083 186.464 88.7466 186.037 88.6144 185.633C88.6437 186.05 88.7034 186.451 88.7864 186.841ZM96.6972 157.942C93.6082 161.16 88.1238 161.822 86.4269 166.515C83.8816 171.003 86.2895 175.825 87.5721 180.222C89.6136 172.351 92.9854 165.148 96.6972 157.942ZM181.795 175.263C185.743 175.268 189.743 176.261 193.325 177.894C193.517 178.849 192.184 178.788 191.577 179.078C182.196 181.328 172.47 182.469 163.431 185.983C160.931 187.016 161.214 183.305 161.125 181.64C167.757 179.565 174.032 176.237 181.006 175.273C181.267 175.265 181.531 175.263 181.795 175.263ZM229.143 188.249C230.722 188.326 227.77 189.793 228.763 188.254C228.912 188.246 229.038 188.243 229.143 188.249ZM172.351 189.309C176.831 189.683 168.042 192.669 172.351 189.309V189.309ZM209.589 190.886C210.162 190.899 210.725 190.985 211.267 191.214C204.627 195.704 196.118 196.878 188.283 197.333C187.19 197.023 183.821 197.874 183.912 196.027C191.268 193.42 198.963 192.051 206.717 191.104C207.649 191.042 208.633 190.864 209.589 190.886Z" fill="#FEFE66"/>
<path d="M106.77 149.883C116.342 144.303 128.432 140.943 139.068 145.588C151.31 150.448 158.606 163.025 160.939 175.473C159.801 181.353 162.859 187.343 159.603 192.866C154.825 200.458 144.977 202.109 137.207 204.174C123.941 205.839 107.999 207.837 97.0471 198.322C94.0975 194.201 89.0002 191.043 88.6132 185.635C87.9566 183.902 87.9699 182.015 87.5729 180.222C89.613 172.352 92.9868 165.147 96.6966 157.942C99.4239 154.579 102.855 151.764 106.77 149.883ZM122.45 167.172C118.625 169.503 111.723 172.96 114.134 178.571C115.612 176.032 116.578 172.661 119.814 171.81C124.456 170.656 128.783 173.432 133.065 174.773C131.341 170.421 127.379 166.822 122.45 167.172ZM135.772 176.509C136.19 177.871 136.921 179.351 138.159 180.155C137.55 178.907 137.233 176.886 135.772 176.509ZM110.767 185.645C110.989 186.933 112.37 188.813 113.561 187.229C112.854 186.388 111.74 186.065 110.767 185.645Z" fill="#CC9934"/>
</g>
<defs>
<clipPath id="clip0">
<rect width="318" height="319" fill="white"/>
</clipPath>
</defs>
</svg>
