<svg width="488" height="387" viewBox="0 0 488 387" fill="none" xmlns="http://www.w3.org/2000/svg">
<g clip-path="url(#clip0)">
<path fill-rule="evenodd" clip-rule="evenodd" d="M381.501 178.087C387.735 184.553 393.78 191.963 399.176 200.415C417.387 229.424 421.138 262.925 415.354 290.87C409.914 316.885 397.143 335.021 387.059 345.624C376.871 356.338 369.357 360.278 369.357 360.278C369.357 360.278 374.07 352.895 378.67 339.85C383.329 326.641 387.176 308.437 385.165 288.362C383.09 267.088 374.594 245.764 361.431 229.041C357.533 223.954 352.905 219.001 347.948 213.877C346.196 212.066 344.399 210.23 342.553 208.341V208.341C335.449 201.162 327.471 193.403 319.639 184.716C311.424 175.695 303.759 165.669 297.427 154.498C290.598 142.59 286.174 129.599 284.581 116.622C282.653 99.8203 286.147 85.1419 291.164 74.2839C296.467 62.8294 303.48 55.4269 308.308 51.234C313.266 46.9267 316.429 45.2991 316.429 45.2991C316.429 45.2991 314.413 48.3765 311.943 54.1866C309.486 59.9673 306.722 68.5307 306.265 78.7424C305.824 88.3791 307.485 99.2126 312.165 109.092C315.685 116.771 321.086 123.748 327.7 130.804C334.037 137.506 341.377 143.578 349.537 150.239C357.511 156.691 366.186 163.493 374.811 171.546V171.546C377.067 173.63 379.302 175.806 381.501 178.087V178.087Z" fill="#FF2A2A"/>
<path fill-rule="evenodd" clip-rule="evenodd" d="M249.13 228.217C252.729 224.5 256.068 221.04 258.838 217.596C268.198 206.404 275.212 191.742 277.735 176.423C280.179 161.91 278.312 148.154 275.456 137.808C272.65 127.638 269.416 121.631 269.416 121.631C269.416 121.631 275.449 124.195 283.845 132.034C292.14 139.777 302.903 153.459 307.925 173.915C313.262 195.899 310.99 222.751 296.583 246.222C292.313 253.032 287.561 258.945 282.683 264.007C280.963 265.792 279.217 267.482 277.458 269.085H277.458C270.74 275.29 264.08 280.331 258.022 284.947C251.839 289.713 246.332 293.824 241.522 298.365C236.533 303.126 232.332 307.679 229.427 312.857C225.541 319.503 223.671 327.247 223.444 334.399C223.194 341.991 224.792 348.61 226.357 353.187C227.925 357.772 229.315 360.278 229.315 360.278C229.315 360.278 226.779 359.223 222.721 356.14C218.779 353.144 212.945 347.698 208.343 338.858C203.991 330.48 200.712 318.899 201.842 305.328C202.818 294.852 206.047 284.283 211.25 274.671C216.049 265.665 221.891 257.591 228.125 250.47C234.041 243.617 240.001 237.622 245.2 232.289H245.2C246.545 230.886 247.861 229.528 249.13 228.217V228.217Z" fill="#FF2A2A"/>
<path fill-rule="evenodd" clip-rule="evenodd" d="M365.338 193.775C369.537 198.133 373.643 203.298 377.349 209.288C389.853 229.988 391.386 253.513 386.272 272.516C381.459 290.193 371.701 301.642 364.301 307.957C356.801 314.358 351.51 316.234 351.51 316.234C351.51 316.234 354.003 310.915 355.912 302.183C357.86 293.27 358.748 281.737 356.082 270.008C353.334 257.663 347.063 246.343 339.604 237.913C337.401 235.293 334.702 232.576 331.785 229.565C330.754 228.5 329.685 227.388 328.587 226.224V226.224C324.341 221.815 319.392 216.702 314.433 210.767C309.191 204.596 304.26 197.499 300.228 189.576C295.839 181.113 293.207 171.755 292.541 162.531C291.809 150.574 294.981 140.544 299 133.407C303.253 125.873 308.495 121.408 311.995 119.011C315.602 116.54 317.825 115.77 317.825 115.77C317.825 115.77 316.747 117.991 315.631 121.963C314.514 125.936 313.495 131.586 314.101 137.865C314.663 143.773 316.636 149.975 320.125 155.001C322.725 158.929 326.321 162.269 330.501 165.881C334.554 169.346 339.128 172.468 344.33 176.29C349.429 179.988 355.081 184.147 360.845 189.429V189.429C362.355 190.791 363.857 192.238 365.338 193.775V193.775Z" fill="#FF2A2A"/>
</g>
<g clip-path="url(#clip1)">
<path d="M230.217 179.999C221.535 181.558 212.581 182.378 204.43 186.012C185.921 191.761 168.282 202.552 156.239 217.871C142.245 233.02 141.855 254.661 136.991 273.617C135.825 277.653 135.526 282.095 133 285.614V289.027C141.434 302.542 146.155 318.304 156.648 330.5C181.248 358.66 216.779 376.167 253.11 383.512C259.943 385.642 267.209 385.982 274.26 386.998H289.438C296.222 386.298 303.03 385.301 309.639 383.585C360.97 372.106 410.84 351.744 454.353 322.05C467.539 313.709 477.093 301.429 487.999 290.614V287.573C485.057 277.69 483.159 267.126 476.363 258.915C469.839 246.538 455.505 243.46 443.963 237.675C429.974 230.148 412.84 236.476 397.711 232.613C369.786 228.216 343.934 216.433 318.297 205.101C301.553 198.744 285.848 189.387 268.081 185.915C260.239 183.491 252.222 181.648 244.189 179.998H230.216L230.217 179.999ZM253.895 197.259C256.97 197.32 260.009 198.333 262.8 199.687C265.957 202.374 271.373 202.759 274.152 203.28C274.882 203.766 275.503 204.394 276.063 205.067C282.027 206.439 287.533 210.296 293.963 210.462C295.31 212.446 297.111 214.015 299.822 213.373C309.871 219.481 321.564 223.865 332.778 228.631C359.997 242.449 390.872 246.344 421.017 246.834C433.285 247.996 446.337 245.871 457.957 250.96C459.665 251.653 461.43 253.098 461.831 254.932C463.276 255.839 464.574 256.969 465.783 258.171C469.228 259.455 471.143 263.641 472.299 267.034C473.285 269.796 477.322 272.743 474.851 275.65C469.236 282.25 466.25 292.542 456.764 294.595C446.767 297.672 436.762 301.114 426.315 302.321C404.467 307.787 378.782 311.451 354.699 311.649C343.034 313.244 329.727 312.904 320.16 320.779C304.702 335.299 287.877 354.061 264.468 352.037C246.762 348.842 229.049 341.789 215.681 329.517C196.231 319.642 179.763 304.171 164.942 288.319C153.063 275.91 153.23 256.661 159.255 242.356C166.705 222.671 186.063 211.226 204.715 203.741C217.499 196.954 234.795 198.123 249.701 197.824C251.092 197.401 252.5 197.232 253.896 197.259H253.895ZM145.216 281.286C150.993 286.643 154.395 295.603 160.445 301.405C165.567 307.215 172.348 311.685 176.528 318.244C162.971 309.932 147.427 298.267 145.216 281.286V281.286ZM359.778 321.836C364.35 322.771 350.698 326.86 359.778 321.836V321.836ZM348.536 322.868C350.487 322.905 352.475 323.212 353.518 324.176C347.189 325.844 339.793 325.35 334.831 330.314C331.999 333.557 327.479 335.776 323.191 334.586C330.011 330.002 336.863 324.217 345.266 323.002C346.203 322.917 347.363 322.844 348.536 322.868V322.868ZM169.137 329.079C173.174 330.071 170.993 334.768 169.137 329.079V329.079ZM181.376 338.857C183.798 338.813 185.555 340.777 187.186 342.299C184.439 343.72 181.433 341.627 181.376 338.857Z" fill="#669833"/>
<path d="M249.7 197.825C234.794 198.124 217.498 196.954 204.714 203.742C205.375 205.963 201.732 206.187 200.649 207.528C186.311 216.076 172.131 226.093 163.459 240.729C162.556 242.09 159.889 245.54 159.255 242.357C153.23 256.662 153.063 275.91 164.94 288.32C179.763 304.172 196.231 319.643 215.678 329.518C220.474 329.137 224.754 331.571 229.14 333.069C244.914 338.782 263.22 341.264 278.998 334.308C292.143 326.939 305.341 318.472 320.925 317.788C323.469 317.023 320.892 319.934 320.162 320.78C329.729 312.905 343.036 313.245 354.701 311.65C378.784 311.452 404.469 307.787 426.317 302.321C425.055 302.398 422.069 303.386 423.684 301.524C435.036 293.981 448.003 289.304 459.651 282.291C465.753 278.85 467.639 271.89 469.83 265.764C470.694 264.051 471.627 266.306 472.301 267.035C471.145 263.642 469.23 259.456 465.785 258.172C464.126 260.197 461.533 256.69 461.833 254.933C461.432 253.099 459.667 251.653 457.959 250.961C446.339 245.872 433.287 247.997 421.019 246.835C390.874 246.345 359.999 242.45 332.78 228.631C321.566 223.866 309.873 219.482 299.824 213.373C297.113 214.016 295.312 212.447 293.965 210.463C287.535 210.296 282.029 206.439 276.065 205.068C274.58 207.625 269.74 203.123 272.357 202.987C269.432 202.535 265.378 201.879 262.802 199.688C263.179 200.224 263.532 200.786 263.804 201.388C258.562 200.082 253.057 199.931 247.9 198.367C248.493 198.175 249.097 197.997 249.702 197.825H249.7ZM272.355 202.987C273.016 203.089 273.641 203.185 274.152 203.281C273.345 203.047 272.76 202.966 272.355 202.987ZM263.421 215.775C269.202 215.685 274.972 216.664 280.477 219.067C298.917 226.38 309.908 245.305 313.421 264.034C311.705 272.881 316.314 281.894 311.409 290.206C304.211 301.628 289.378 304.114 277.674 307.22C282.197 306.523 287.5 308.734 291.354 311.046C276.939 320.658 258.585 326.363 241.431 321.318C217.437 314.014 194.502 300.928 178.643 281.226C171.512 272.901 167.105 258.058 176.006 250.41C173.024 273.419 192.551 301.001 217.182 298.413C213.08 292.692 206.227 288.198 204.738 281.141C204.657 282.489 203.842 283.408 201.951 282.359C193.569 277.926 188.993 268.508 188.485 259.313C187.999 238.19 209.254 220.95 229.645 223.108C231.142 223.31 234.299 223.978 231.828 225.529C241.289 220.019 252.385 215.947 263.421 215.774V215.775ZM204.738 281.14C204.771 280.573 204.678 279.93 204.479 279.322C204.523 279.95 204.613 280.553 204.738 281.14ZM216.654 237.655C212.001 242.498 203.74 243.494 201.184 250.555C197.35 257.308 200.977 264.564 202.909 271.18C205.984 259.337 211.063 248.498 216.654 237.655ZM344.836 263.718C350.783 263.726 356.808 265.22 362.204 267.678C362.492 269.115 360.484 269.022 359.571 269.459C345.44 272.844 330.79 274.561 317.174 279.849C313.409 281.403 313.835 275.82 313.701 273.314C323.69 270.192 333.143 265.184 343.647 263.734C344.04 263.722 344.438 263.718 344.836 263.718V263.718ZM416.156 283.258C418.534 283.375 414.087 285.582 415.584 283.266C415.807 283.254 415.998 283.25 416.156 283.258ZM330.611 284.853C337.358 285.416 324.12 289.91 330.611 284.853V284.853ZM386.701 287.226C387.565 287.246 388.413 287.376 389.229 287.72C379.228 294.477 366.411 296.243 354.609 296.927C352.962 296.461 347.887 297.741 348.024 294.963C359.105 291.04 370.696 288.979 382.376 287.554C383.78 287.461 385.261 287.193 386.701 287.226V287.226Z" fill="#FEFE66"/>
<path d="M231.827 225.53C246.245 217.133 264.456 212.077 280.477 219.067C298.917 226.38 309.907 245.304 313.421 264.035C311.707 272.882 316.312 281.896 311.408 290.206C304.211 301.629 289.377 304.114 277.673 307.221C257.691 309.727 233.678 312.733 217.181 298.415C212.738 292.215 205.06 287.463 204.477 279.325C203.488 276.718 203.508 273.879 202.91 271.181C205.983 259.338 211.065 248.497 216.653 237.656C220.761 232.595 225.929 228.359 231.827 225.53V225.53ZM255.445 251.544C249.683 255.051 239.287 260.254 242.918 268.696C245.145 264.875 246.6 259.804 251.474 258.523C258.467 256.787 264.984 260.963 271.435 262.982C268.838 256.433 262.869 251.018 255.445 251.544V251.544ZM275.512 265.594C276.141 267.643 277.242 269.87 279.108 271.08C278.19 269.202 277.713 266.161 275.512 265.594ZM237.847 279.34C238.181 281.278 240.261 284.107 242.056 281.724C240.991 280.458 239.312 279.972 237.847 279.34Z" fill="#CC9934"/>
</g>
<defs>
<clipPath id="clip0">
<rect width="444" height="246" fill="white"/>
</clipPath>
<clipPath id="clip1">
<rect width="355" height="207" fill="white" transform="translate(133 180)"/>
</clipPath>
</defs>
</svg>
